<svg width="185" height="52" viewBox="0 0 185 52" fill="none" xmlns="http://www.w3.org/2000/svg">
<path d="M178.167 1.02676C181.338 1.02676 183.907 3.43908 183.907 6.41597V44.9104C183.907 47.8872 181.338 50.2996 178.167 50.2996H7.33369C4.16303 50.2996 1.5937 47.8872 1.5937 44.9104V6.41597C1.5937 3.43908 4.16303 1.02676 7.33369 1.02676H178.167ZM178.167 0.000244141H7.33369C3.57536 0.000244141 0.500366 2.88732 0.500366 6.41597V44.9104C0.500366 48.439 3.57536 51.3261 7.33369 51.3261H178.167C181.925 51.3261 185 48.439 185 44.9104V6.41597C185 2.88732 181.925 0.000244141 178.167 0.000244141Z" fill="white"/>
<path d="M65.3076 13.1401C65.3076 14.218 64.9659 15.0777 64.2826 15.7064C63.5173 16.4635 62.506 16.8484 61.276 16.8484C60.087 16.8484 59.0893 16.4635 58.2556 15.6936C57.422 14.9237 57.012 13.9613 57.012 12.8322C57.012 11.6902 57.422 10.7406 58.2556 9.97075C59.0893 9.20086 60.087 8.81592 61.276 8.81592C61.8636 8.81592 62.424 8.91857 62.957 9.1367C63.49 9.35484 63.9136 9.63713 64.2416 9.99641L63.5173 10.6765C62.9706 10.0734 62.2326 9.76545 61.276 9.76545C60.415 9.76545 59.6633 10.0477 59.0346 10.6252C58.406 11.1897 58.0916 11.934 58.0916 12.845C58.0916 13.756 58.406 14.5003 59.0346 15.0648C59.6633 15.6294 60.415 15.9246 61.276 15.9246C62.1916 15.9246 62.957 15.6423 63.572 15.0648C63.9683 14.6927 64.2006 14.1666 64.2553 13.4994H61.276V12.5627H65.253C65.2803 12.768 65.3076 12.9605 65.3076 13.1401Z" fill="white" stroke="white" stroke-width="0.256629" stroke-miterlimit="10"/>
<path d="M71.6077 9.93244H67.8766V12.3704H71.2387V13.2943H67.8766V15.7323H71.6077V16.6818H66.8243V8.98291H71.6077V9.93244Z" fill="white" stroke="white" stroke-width="0.256629" stroke-miterlimit="10"/>
<path d="M76.0491 16.6818H74.9967V9.93244H72.7007V8.98291H78.3314V9.93244H76.0354V16.6818H76.0491Z" fill="white" stroke="white" stroke-width="0.256629" stroke-miterlimit="10"/>
<path d="M82.4175 16.6818V8.98291H83.4697V16.6818H82.4175Z" fill="white" stroke="white" stroke-width="0.256629" stroke-miterlimit="10"/>
<path d="M88.1448 16.6818H87.0925V9.93244H84.7964V8.98291H90.4271V9.93244H88.1311V16.6818H88.1448Z" fill="white" stroke="white" stroke-width="0.256629" stroke-miterlimit="10"/>
<path d="M101.1 15.6805C100.294 16.4632 99.2961 16.8482 98.0934 16.8482C96.8908 16.8482 95.8931 16.4632 95.0868 15.6805C94.2805 14.8978 93.8842 13.9483 93.8842 12.8319C93.8842 11.7156 94.2805 10.7532 95.0868 9.98334C95.8931 9.20062 96.8908 8.81567 98.0934 8.81567C99.2824 8.81567 100.28 9.20062 101.1 9.98334C101.906 10.7661 102.316 11.7156 102.316 12.8319C102.303 13.9611 101.906 14.9106 101.1 15.6805ZM95.8658 15.0389C96.4671 15.6164 97.2188 15.8987 98.0934 15.8987C98.9681 15.8987 99.7198 15.6164 100.321 15.0389C100.922 14.4615 101.237 13.7301 101.237 12.8319C101.237 11.9337 100.936 11.2023 100.321 10.6249C99.7198 10.0475 98.9681 9.75237 98.0934 9.75237C97.2188 9.75237 96.4671 10.0347 95.8658 10.6121C95.2645 11.2023 94.9501 11.9337 94.9501 12.8319C94.9501 13.7301 95.2645 14.4615 95.8658 15.0389Z" fill="white" stroke="white" stroke-width="0.256629" stroke-miterlimit="10"/>
<path d="M103.793 16.6818V8.98291H105.078L109.068 14.9752H109.109L109.068 13.4868V8.98291H110.121V16.6818H109.027L104.859 10.4072H104.818L104.859 11.8957V16.6818H103.793Z" fill="white" stroke="white" stroke-width="0.256629" stroke-miterlimit="10"/>
<path d="M93.6249 27.9085C90.4133 27.9085 87.7893 30.2053 87.7893 33.3619C87.7893 36.5056 90.4133 38.8152 93.6249 38.8152C96.8366 38.8152 99.4606 36.5056 99.4606 33.3619C99.4606 30.2053 96.8366 27.9085 93.6249 27.9085ZM93.6249 36.6724C91.8619 36.6724 90.3449 35.3122 90.3449 33.3619C90.3449 31.3986 91.8619 30.0513 93.6249 30.0513C95.3879 30.0513 96.9049 31.3986 96.9049 33.3619C96.9049 35.3122 95.3743 36.6724 93.6249 36.6724ZM80.8876 27.9085C77.676 27.9085 75.052 30.2053 75.052 33.3619C75.052 36.5056 77.676 38.8152 80.8876 38.8152C84.0993 38.8152 86.7233 36.5056 86.7233 33.3619C86.7233 30.2053 84.0993 27.9085 80.8876 27.9085ZM80.8876 36.6724C79.1246 36.6724 77.6076 35.3122 77.6076 33.3619C77.6076 31.3986 79.1246 30.0513 80.8876 30.0513C82.6506 30.0513 84.1676 31.3986 84.1676 33.3619C84.1676 35.3122 82.6506 36.6724 80.8876 36.6724ZM65.745 29.5894V31.8991H71.649C71.4713 33.1951 71.0067 34.1574 70.3097 34.8118C69.4487 35.6202 68.1093 36.5056 65.7587 36.5056C62.1234 36.5056 59.2807 33.7596 59.2807 30.3465C59.2807 26.9333 62.1234 24.1874 65.7587 24.1874C67.713 24.1874 69.148 24.9059 70.2003 25.8426L71.936 24.213C70.46 22.8914 68.5057 21.8777 65.745 21.8777C60.7704 21.8777 56.5884 25.6758 56.5884 30.3593C56.5884 35.03 60.7704 38.8409 65.745 38.8409C68.4373 38.8409 70.46 38.0197 72.0453 36.4671C73.6717 34.9401 74.1773 32.7844 74.1773 31.0522C74.1773 30.5133 74.1363 30.0128 74.0407 29.6022H65.745V29.5894ZM127.668 31.3858C127.19 30.1668 125.714 27.9085 122.694 27.9085C119.701 27.9085 117.214 30.1155 117.214 33.3619C117.214 36.4158 119.674 38.8152 122.981 38.8152C125.646 38.8152 127.19 37.2883 127.819 36.4029L125.837 35.1583C125.181 36.0693 124.279 36.6724 122.981 36.6724C121.683 36.6724 120.753 36.1078 120.166 35.0171L127.942 32.0017L127.668 31.3858ZM119.742 33.2079C119.674 31.1035 121.478 30.0257 122.776 30.0257C123.787 30.0257 124.648 30.5004 124.935 31.1805L119.742 33.2079ZM113.428 38.4945H115.984V22.4551H113.428V38.4945ZM109.246 29.1275H109.15C108.576 28.4859 107.483 27.9085 106.089 27.9085C103.178 27.9085 100.513 30.308 100.513 33.3875C100.513 36.4414 103.178 38.8281 106.089 38.8281C107.469 38.8281 108.576 38.2507 109.15 37.5834H109.232V38.3661C109.232 40.4577 108.043 41.574 106.13 41.574C104.572 41.574 103.602 40.5218 103.205 39.6365L100.978 40.509C101.62 41.959 103.315 43.7297 106.13 43.7297C109.123 43.7297 111.651 42.0744 111.651 38.0454V28.2421H109.232V29.1275H109.246ZM106.308 36.6724C104.545 36.6724 103.069 35.2866 103.069 33.3875C103.069 31.4628 104.545 30.0642 106.308 30.0642C108.043 30.0642 109.41 31.4756 109.41 33.3875C109.424 35.2866 108.057 36.6724 106.308 36.6724ZM139.64 22.4551H133.531V38.4945H136.087V32.4123H139.654C142.483 32.4123 145.257 30.4876 145.257 27.4337C145.257 24.3798 142.456 22.4551 139.64 22.4551ZM139.695 30.1797H136.073V24.6749H139.695C141.608 24.6749 142.688 26.1634 142.688 27.4209C142.688 28.6784 141.608 30.1797 139.695 30.1797ZM155.466 27.8828C153.621 27.8828 151.708 28.6527 150.915 30.3336L153.184 31.219C153.662 30.3336 154.564 30.0385 155.507 30.0385C156.833 30.0385 158.172 30.7827 158.186 32.1044V32.2712C157.721 32.0274 156.737 31.6553 155.521 31.6553C153.075 31.6553 150.601 32.9128 150.601 35.2609C150.601 37.4038 152.596 38.7896 154.838 38.7896C156.546 38.7896 157.503 38.071 158.09 37.2241H158.172V38.4688H160.632V32.3225C160.646 29.4739 158.377 27.8828 155.466 27.8828ZM155.152 36.6724C154.318 36.6724 153.157 36.2746 153.157 35.3122C153.157 34.0804 154.605 33.6057 155.863 33.6057C156.983 33.6057 157.516 33.8366 158.186 34.1446C157.995 35.6202 156.628 36.6724 155.152 36.6724ZM169.611 28.2293L166.687 35.1839H166.605L163.571 28.2293H160.824L165.375 37.9555L162.778 43.3576H165.443L172.454 28.2293H169.611ZM146.651 38.4945H149.207V22.4551H146.651V38.4945Z" fill="white"/>
<path d="M14.7684 9.67503C14.372 10.0728 14.1397 10.6887 14.1397 11.4714V39.8547C14.1397 40.6502 14.372 41.2662 14.7684 41.6511L14.864 41.7409L31.7971 25.8555V25.6631V25.4706L14.864 9.58521L14.7684 9.67503Z" fill="url(#paint0_linear_35680_756)"/>
<path d="M37.4432 31.1549L31.7988 25.8555V25.663V25.4706L37.4432 20.1711L37.5662 20.2353L44.2493 23.8025C46.1626 24.8162 46.1626 26.4843 44.2493 27.5108L37.5662 31.078L37.4432 31.1549Z" fill="url(#paint1_linear_35680_756)"/>
<path d="M37.5654 31.0908L31.7981 25.6631L14.7695 41.6511C15.3981 42.2798 16.4368 42.3568 17.6121 41.7281L37.5654 31.0908Z" fill="url(#paint2_linear_35680_756)"/>
<path d="M37.5649 20.2483L17.598 9.59816C16.4227 8.96941 15.384 9.0464 14.7554 9.67514L31.7976 25.6632L37.5649 20.2483Z" fill="url(#paint3_linear_35680_756)"/>
<path opacity="0.2" d="M37.4412 30.9626L17.5973 41.5486C16.4903 42.1388 15.4926 42.1003 14.864 41.5614L14.7683 41.6512L14.864 41.7411C15.5063 42.28 16.4903 42.3185 17.5973 41.7282L37.5642 31.0781L37.4412 30.9626Z" fill="black"/>
<path opacity="0.12" d="M14.7673 41.4714C14.3709 41.0737 14.1385 40.4578 14.1385 39.675V39.8675C14.1385 40.6631 14.3709 41.279 14.7673 41.6639L14.863 41.5741L14.7673 41.4714Z" fill="black"/>
<path opacity="0.12" d="M44.2487 27.3312L37.429 30.9624L37.552 31.0779L44.235 27.5108C45.1917 26.9975 45.67 26.3303 45.67 25.6631C45.6017 26.2662 45.1233 26.8692 44.2487 27.3312Z" fill="black"/>
<path opacity="0.25" d="M17.5981 9.77879L44.2481 23.996C45.1091 24.458 45.6011 25.0482 45.6831 25.6641C45.6831 24.9969 45.2048 24.3168 44.2481 23.8164L17.5981 9.59915C15.6847 8.58546 14.1267 9.43234 14.1267 11.4854V11.6778C14.1267 9.61198 15.6984 8.7651 17.5981 9.77879Z" fill="white"/>
<defs>
<linearGradient id="paint0_linear_35680_756" x1="30.2932" y1="11.1761" x2="8.80161" y2="34.0665" gradientUnits="userSpaceOnUse">
<stop stop-color="#00A0FF"/>
<stop offset="0.00657445" stop-color="#00A1FF"/>
<stop offset="0.2601" stop-color="#00BEFF"/>
<stop offset="0.5122" stop-color="#00D2FF"/>
<stop offset="0.7604" stop-color="#00DFFF"/>
<stop offset="1" stop-color="#00E3FF"/>
</linearGradient>
<linearGradient id="paint1_linear_35680_756" x1="46.7425" y1="25.665" x2="13.6731" y2="25.665" gradientUnits="userSpaceOnUse">
<stop stop-color="#FFE000"/>
<stop offset="0.4087" stop-color="#FFBD00"/>
<stop offset="0.7754" stop-color="#FFA500"/>
<stop offset="1" stop-color="#FF9C00"/>
</linearGradient>
<linearGradient id="paint2_linear_35680_756" x1="34.4315" y1="28.6094" x2="5.28718" y2="59.6506" gradientUnits="userSpaceOnUse">
<stop stop-color="#FF3A44"/>
<stop offset="1" stop-color="#C31162"/>
</linearGradient>
<linearGradient id="paint3_linear_35680_756" x1="10.4739" y1="0.226433" x2="23.4881" y2="14.0875" gradientUnits="userSpaceOnUse">
<stop stop-color="#32A071"/>
<stop offset="0.0685" stop-color="#2DA771"/>
<stop offset="0.4762" stop-color="#15CF74"/>
<stop offset="0.8009" stop-color="#06E775"/>
<stop offset="1" stop-color="#00F076"/>
</linearGradient>
</defs>
</svg>
